<svg style="object-fit:cover" id="my-svg" version="1" baseProfile="full" width="100%" height="100%" viewBox="0 0 1600 765" xmlns="http://www.w3.org/2000/svg"><rect width="1600" height="765" fill="#000"/><defs><linearGradient id="linear-gradient" x1="0" x2="1" y1="0" y2="1"><stop offset="0%" stop-color="#c81d1180"/><stop offset="100%" stop-color="#1c39bb80"/></linearGradient></defs><path transform="scale(1, 1)" d="M 0,765 V 0,153 V 194 H 27 V 98 H 50 V 149 H 69 V 114 H 93 V 189 H 116 V 110 H 147 V 157 H 172 V 162 H 198 V 126 H 222 V 105 H 240 V 209 H 265 V 103 H 289 V 115 H 314 V 192 H 337 V 99 H 360 V 150 H 390 V 157 H 413 V 120 H 437 V 176 H 458 V 110 H 487 V 96 H 511 V 105 H 533 V 110 H 560 V 97 H 583 V 146 H 608 V 103 H 631 V 207 H 654 V 141 H 678 V 175 H 706 V 193 H 727 V 185 H 751 V 168 H 777 V 151 H 803 V 127 H 820 V 190 H 849 V 101 H 874 V 162 H 896 V 176 H 924 V 144 H 943 V 105 H 968 V 130 H 991 V 107 H 1017 V 166 H 1042 V 209 H 1062 V 112 H 1090 V 116 H 1114 V 156 H 1141 V 165 H 1160 V 162 H 1185 V 134 H 1209 V 182 H 1239 V 182 H 1260 V 177 H 1283 V 183 H 1312 V 185 H 1336 V 113 H 1358 V 95 H 1386 V 133 H 1406 V 140 H 1425 V 99 H 1452 V 187 H 1479 V 208 H 1501 V 140 H 1527 V 156 H 1546 V 115 H 1578 V 153 H 1600 C 1600,153 1600,765 1600,765 Z" stroke="none" stroke-width="0" fill="url(#linear-gradient)" class="transition-all duration-300 ease-in-out delay-150" style="transform-origin: center center;"/><defs><linearGradient id="linear-gradient" x1="0" x2="1" y1="0" y2="1"><stop offset="0%" stop-color="#c81d1190"/><stop offset="100%" stop-color="#1c39bb90"/></linearGradient></defs><path transform="scale(1, 1)" d="M 0,765 V 0,229 V 195 H 23 V 175 H 51 V 241 H 76 V 274 H 100 V 236 H 116 V 204 H 143 V 232 H 166 V 259 H 189 V 191 H 214 V 266 H 243 V 241 H 263 V 237 H 287 V 177 H 312 V 218 H 335 V 205 H 361 V 209 H 392 V 261 H 413 V 268 H 440 V 172 H 462 V 282 H 481 V 233 H 504 V 213 H 536 V 178 H 561 V 280 H 580 V 210 H 601 V 226 H 633 V 176 H 650 V 271 H 677 V 221 H 705 V 226 H 729 V 222 H 752 V 253 H 776 V 258 H 799 V 237 H 827 V 213 H 851 V 265 H 870 V 280 H 900 V 206 H 922 V 178 H 942 V 277 H 970 V 175 H 991 V 260 H 1019 V 260 H 1045 V 190 H 1063 V 234 H 1088 V 248 H 1115 V 210 H 1142 V 253 H 1161 V 173 H 1184 V 260 H 1211 V 286 H 1237 V 276 H 1257 V 242 H 1283 V 277 H 1312 V 280 H 1330 V 222 H 1359 V 193 H 1378 V 259 H 1409 V 245 H 1427 V 221 H 1456 V 190 H 1476 V 217 H 1498 V 192 H 1526 V 206 H 1553 V 254 H 1578 V 229 H 1600 C 1600,229 1600,765 1600,765 Z" stroke="none" stroke-width="0" fill="url(#linear-gradient)" class="transition-all duration-300 ease-in-out delay-150" style="transform-origin: center center;"/><defs><linearGradient id="linear-gradient" x1="0" x2="1" y1="0" y2="1"><stop offset="0%" stop-color="#c81d11ff"/><stop offset="100%" stop-color="#1c39bbff"/></linearGradient></defs><path transform="scale(1, 1)" d="M 0,765 V 0,344 V 289 H 20 V 384 H 46 V 376 H 68 V 368 H 92 V 385 H 123 V 395 H 142 V 292 H 166 V 343 H 195 V 382 H 219 V 397 H 240 V 386 H 267 V 354 H 290 V 401 H 319 V 371 H 343 V 366 H 368 V 349 H 384 V 298 H 409 V 360 H 434 V 318 H 463 V 292 H 483 V 393 H 512 V 384 H 531 V 390 H 560 V 383 H 586 V 376 H 602 V 356 H 630 V 332 H 650 V 290 H 680 V 305 H 707 V 388 H 726 V 329 H 754 V 322 H 776 V 358 H 800 V 318 H 820 V 350 H 847 V 378 H 868 V 320 H 901 V 370 H 918 V 372 H 942 V 319 H 968 V 290 H 998 V 319 H 1015 V 296 H 1042 V 353 H 1070 V 382 H 1091 V 347 H 1118 V 310 H 1142 V 290 H 1160 V 325 H 1185 V 341 H 1212 V 391 H 1232 V 367 H 1259 V 369 H 1285 V 355 H 1311 V 336 H 1336 V 301 H 1356 V 357 H 1379 V 287 H 1404 V 328 H 1432 V 383 H 1450 V 316 H 1476 V 357 H 1506 V 330 H 1527 V 291 H 1550 V 302 H 1579 V 344 H 1600 C 1600,344 1600,765 1600,765 Z" stroke="none" stroke-width="0" fill="url(#linear-gradient)" class="transition-all duration-300 ease-in-out delay-150" style="transform-origin: center center;"/></svg>